REM DIRINDEX 1\2,1\3,1\4,1\5
REM DIRNAME cjc004,folder01,folder02,folder03,folder04
TITLE ""
FILE "1Q_t_1357-1366.mp3" MP3
  TRACK 01 AUDIO
    TITLE "3:cjc004_4976"
    INDEX 01 00:00:00
  TRACK 02 AUDIO
    TITLE "0:"
    INDEX 01 00:01:28
  TRACK 03 AUDIO
    TITLE "4:cjc004_4977"
    INDEX 01 00:01:52
  TRACK 04 AUDIO
    TITLE "0:"
    INDEX 01 00:02:69
  TRACK 05 AUDIO
    TITLE "5:cjc004_4978"
    INDEX 01 00:03:14
  TRACK 06 AUDIO
    TITLE "0:"
    INDEX 01 00:07:15
  TRACK 07 AUDIO
    TITLE "3:cjc004_4979"
    INDEX 01 00:07:68
  TRACK 08 AUDIO
    TITLE "0:"
    INDEX 01 00:09:12
  TRACK 09 AUDIO
    TITLE "4:cjc004_4980"
    INDEX 01 00:09:44
  TRACK 10 AUDIO
    TITLE "0:"
    INDEX 01 00:11:21
  TRACK 11 AUDIO
    TITLE "5:cjc004_4981"
    INDEX 01 00:11:44
  TRACK 12 AUDIO
    TITLE "0:"
    INDEX 01 00:14:45
  TRACK 13 AUDIO
    TITLE "3:cjc004_4982"
    INDEX 01 00:15:19
  TRACK 14 AUDIO
    TITLE "0:"
    INDEX 01 00:16:49
  TRACK 15 AUDIO
    TITLE "4:cjc004_4983"
    INDEX 01 00:17:00
  TRACK 16 AUDIO
    TITLE "0:"
    INDEX 01 00:18:13
  TRACK 17 AUDIO
    TITLE "5:cjc004_4984"
    INDEX 01 00:18:37
  TRACK 18 AUDIO
    TITLE "0:"
    INDEX 01 00:23:10
  TRACK 19 AUDIO
    TITLE "3:cjc004_4985"
    INDEX 01 00:23:59
  TRACK 20 AUDIO
    TITLE "0:"
    INDEX 01 00:24:72
  TRACK 21 AUDIO
    TITLE "4:cjc004_4986"
    INDEX 01 00:25:31
  TRACK 22 AUDIO
    TITLE "0:"
    INDEX 01 00:26:54
  TRACK 23 AUDIO
    TITLE "5:cjc004_4987"
    INDEX 01 00:27:04
  TRACK 24 AUDIO
    TITLE "0:"
    INDEX 01 00:31:22
  TRACK 25 AUDIO
    TITLE "3:cjc004_4988"
    INDEX 01 00:31:73
  TRACK 26 AUDIO
    TITLE "0:"
    INDEX 01 00:33:07
  TRACK 27 AUDIO
    TITLE "4:cjc004_4989"
    INDEX 01 00:33:38
  TRACK 28 AUDIO
    TITLE "0:"
    INDEX 01 00:34:57
  TRACK 29 AUDIO
    TITLE "5:cjc004_4990"
    INDEX 01 00:35:06
  TRACK 30 AUDIO
    TITLE "0:"
    INDEX 01 00:39:51
  TRACK 31 AUDIO
    TITLE "3:cjc004_4991"
    INDEX 01 00:40:30
  TRACK 32 AUDIO
    TITLE "0:"
    INDEX 01 00:41:67
  TRACK 33 AUDIO
    TITLE "4:cjc004_4992"
    INDEX 01 00:42:16
  TRACK 34 AUDIO
    TITLE "0:"
    INDEX 01 00:43:42
  TRACK 35 AUDIO
    TITLE "5:cjc004_4993"
    INDEX 01 00:43:66
  TRACK 36 AUDIO
    TITLE "0:"
    INDEX 01 00:48:00
  TRACK 37 AUDIO
    TITLE "3:cjc004_4994"
    INDEX 01 00:48:53
  TRACK 38 AUDIO
    TITLE "0:"
    INDEX 01 00:50:01
  TRACK 39 AUDIO
    TITLE "4:cjc004_4995"
    INDEX 01 00:50:27
  TRACK 40 AUDIO
    TITLE "0:"
    INDEX 01 00:51:58
  TRACK 41 AUDIO
    TITLE "5:cjc004_4996"
    INDEX 01 00:52:18
  TRACK 42 AUDIO
    TITLE "0:"
    INDEX 01 00:57:27
  TRACK 43 AUDIO
    TITLE "3:cjc004_4997"
    INDEX 01 00:58:03
  TRACK 44 AUDIO
    TITLE "0:"
    INDEX 01 00:59:36
  TRACK 45 AUDIO
    TITLE "4:cjc004_4998"
    INDEX 01 00:59:61
  TRACK 46 AUDIO
    TITLE "0:"
    INDEX 01 01:01:19
  TRACK 47 AUDIO
    TITLE "5:cjc004_4999"
    INDEX 01 01:01:40
  TRACK 48 AUDIO
    TITLE "0:"
    INDEX 01 01:07:14
  TRACK 49 AUDIO
    TITLE "3:cjc004_5000"
    INDEX 01 01:07:63
  TRACK 50 AUDIO
    TITLE "0:"
    INDEX 01 01:09:16
  TRACK 51 AUDIO
    TITLE "4:cjc004_5001"
    INDEX 01 01:09:44
  TRACK 52 AUDIO
    TITLE "0:"
    INDEX 01 01:11:13
  TRACK 53 AUDIO
    TITLE "5:cjc004_5002"
    INDEX 01 01:11:39
  TRACK 54 AUDIO
    TITLE "0:"
    INDEX 01 01:15:19
  TRACK 55 AUDIO
    TITLE "3:cjc004_5003"
    INDEX 01 01:15:66
  TRACK 56 AUDIO
    TITLE "0:"
    INDEX 01 01:17:30
  TRACK 57 AUDIO
    TITLE "4:cjc004_5004"
    INDEX 01 01:17:57
  TRACK 58 AUDIO
    TITLE "0:"
    INDEX 01 01:19:01
  TRACK 59 AUDIO
    TITLE "5:cjc004_5005"
    INDEX 01 01:19:27
  TRACK 60 AUDIO
    TITLE "0:"
    INDEX 01 01:24:10
